<?xml version="1.0" encoding="UTF-8"?>
<svg width="538px" height="388px" viewBox="0 0 538 388" version="1.1" xmlns="http://www.w3.org/2000/svg" xmlns:xlink="http://www.w3.org/1999/xlink">
    <!-- Generator: Sketch 52.2 (67145) - http://www.bohemiancoding.com/sketch -->
    <title>Group 6</title>
    <desc>Created with Sketch.</desc>
    <defs>
        <linearGradient x1="18.9391031%" y1="31.069604%" x2="88.0235231%" y2="73.2989468%" id="linearGradient-1">
            <stop stop-color="#FFFFFF" offset="0%"></stop>
            <stop stop-color="#E3F1FE" offset="100%"></stop>
        </linearGradient>
        <linearGradient x1="18.9391031%" y1="31.069604%" x2="123.941863%" y2="100%" id="linearGradient-2">
            <stop stop-color="#FFFFFF" offset="0%"></stop>
            <stop stop-color="#F1F7FC" offset="100%"></stop>
        </linearGradient>
        <rect id="path-3" x="0" y="0" width="20" height="19" rx="2"></rect>
        <path d="M2.04719609,1.13080286e-15 L168.11518,4.88498131e-15 C169.21975,4.68207518e-15 170.11518,0.8954305 170.11518,2 C170.11518,2.09562212 170.108322,2.19112113 170.09466,2.28576215 L157.806262,87.4077209 C157.664213,88.3917013 156.820963,89.1219588 155.826782,89.1219588 L14.3355937,89.1219588 C13.3414129,89.1219588 12.4981636,88.3917013 12.356114,87.4077209 L0.0677163637,2.28576215 C-0.0901057144,1.19252568 0.668197474,0.17834235 1.76143394,0.0205202721 C1.85607496,0.00685768093 1.95157397,-2.86901437e-15 2.04719609,-2.88657986e-15 Z" id="path-5"></path>
        <ellipse id="path-7" cx="10.245098" cy="10.2539683" rx="10.245098" ry="10.2539683"></ellipse>
        <linearGradient x1="81.2595801%" y1="93.3367935%" x2="30.1291577%" y2="53.7974635%" id="linearGradient-9">
            <stop stop-color="#FFAC57" offset="0%"></stop>
            <stop stop-color="#E88F4E" offset="100%"></stop>
        </linearGradient>
        <path d="M6.22033486,4 C-6.93925985,43.3558052 3.29855551,73.3483146 36.9337809,93.9775281 L50.7687481,102 C54.8703741,101.235955 56.5600532,99.3258427 55.8377853,96.2696629 L31.211988,60.5858508 C26.784601,53.3272938 27.3629089,45.3567293 32.9469116,36.6741573 L35.9768583,0 L6.22033486,4 Z" id="path-10"></path>
        <path d="M14.6834895,5 C0.153186978,39.9019608 -3.05598214,75.7058824 5.05598214,112.411765 C7.83515174,115.470588 10.7654213,115.470588 13.8467908,112.411765 C17.9748699,104.823529 22.6321525,59.6470588 30.231544,53.9117647 C47.5082716,38.6967229 56.6157526,20.7261347 57.5539869,0 L14.6834895,5 Z" id="path-12"></path>
        <path d="M6.52666811,1.22848712e-14 L88.1346207,-8.8817842e-16 C90.3437597,-1.29399067e-15 92.1346207,1.790861 92.1346207,4 C92.1346207,4.09827396 92.130999,4.19651454 92.1237631,4.29452175 L89.954982,33.6695217 C89.8007354,35.7587114 88.0607157,37.375 85.9658397,37.375 L10.8845273,37.375 L0,46 L2.53384576,3.76048033 C2.66055855,1.64816254 4.41055314,1.1046865e-14 6.52666811,1.0658141e-14 Z" id="path-14"></path>
        <path d="M11.2275578,4.96152766 L18.2454838,16.9922579 C18.8020444,17.9463618 18.4797719,19.1709972 17.5256681,19.7275578 C17.2197959,19.9059832 16.8720353,20 16.517926,20 L2.482074,20 C1.3775045,20 0.482073998,19.1045695 0.482073998,18 C0.482073998,17.6458907 0.576090794,17.2981301 0.754516196,16.9922579 L7.7724422,4.96152766 C8.32900276,4.00742383 9.55363822,3.68515134 10.5077421,4.24171191 C10.8057493,4.41554948 11.0537202,4.66352039 11.2275578,4.96152766 Z" id="path-16"></path>
    </defs>
    <g id="Screen" stroke="none" stroke-width="1" fill="none" fill-rule="evenodd">
        <g id="VD-0_1-115登录页面" transform="translate(-103.000000, -178.000000)">
            <g id="Illustration" transform="translate(0.000000, 178.000000)">
                <g id="Group-6" transform="translate(103.000000, 0.000000)">
                    <g id="Folder" transform="translate(13.000000, 195.000000)">
                        <g id="Shadow" transform="translate(0.000000, 135.000000)" fill="#D7E8F8" fill-rule="nonzero">
                            <ellipse id="Oval-Copy-2" cx="227.5" cy="23" rx="177.5" ry="23"></ellipse>
                            <ellipse id="Oval-Copy-3" cx="97.5" cy="38" rx="97.5" ry="20"></ellipse>
                        </g>
                        <g id="Cloud" transform="translate(214.000000, 44.000000)" fill="url(#linearGradient-1)" fill-rule="nonzero">
                            <path d="M59.7132551,27.9570725 C64.650852,11.773135 79.7005445,0 97.5,0 C116.414749,0 132.224344,13.2947395 136.093982,31.049413 C138.95065,30.3633715 141.93289,30 145,30 C165.98682,30 183,47.0131795 183,68 C183,88.652461 166.524606,105.456888 146,105.987098 L146,106 L27,106 C12.0883118,106 0,93.9116882 0,79 C0,64.7533548 11.0341082,53.0838636 25.0225403,52.0713109 C25.0075637,51.7160743 25,51.3589205 25,51 C25,37.1928813 36.1928813,26 50,26 C53.4449054,26 56.7270711,26.6967715 59.7132551,27.9570725 Z" id="Combined-Shape-Copy"></path>
                        </g>
                        <path d="M135,44 L196.900372,44 L216.981485,55.0341473 L281.127216,55.8575835 C282.221683,55.8716331 283.101544,56.7628617 283.101544,57.8574187 L283.101544,129.424398 C283.101544,130.528967 282.206114,131.424398 281.101544,131.424398 L135,131.424398 C133.895431,131.424398 133,130.528967 133,129.424398 L133,46 C133,44.8954305 133.895431,44 135,44 Z" id="Rectangle-2" fill="#2253CF" fill-rule="nonzero"></path>
                        <g id="Document" transform="translate(169.000000, 0.000000)">
                            <rect id="Rectangle" fill="#E5F1FF" fill-rule="nonzero" opacity="0.8" x="7" y="0" width="76" height="97" rx="4"></rect>
                            <rect id="Rectangle" fill="url(#linearGradient-2)" fill-rule="nonzero" x="0" y="6" width="75" height="97" rx="4"></rect>
                            <rect id="Rectangle" fill="#CEE8FF" fill-rule="nonzero" x="12" y="46" width="52" height="4" rx="2"></rect>
                            <rect id="Rectangle" fill="#CEE8FF" fill-rule="nonzero" x="12" y="60" width="52" height="4" rx="2"></rect>
                            <g id="Rectangle" transform="translate(12.000000, 14.000000)">
                                <mask id="mask-4" fill="white">
                                    <use xlink:href="#path-3"></use>
                                </mask>
                                <use id="Mask" fill="#0079FF" fill-rule="nonzero" xlink:href="#path-3"></use>
                                <rect id="Rectangle-Copy-5" fill="#278DFF" fill-rule="nonzero" mask="url(#mask-4)" transform="translate(19.031223, 4.031223) rotate(-45.000000) translate(-19.031223, -4.031223) " x="9.53122292" y="-11.9687771" width="19" height="32"></rect>
                            </g>
                            <rect id="Rectangle-Copy-3" fill="#B9DEFF" fill-rule="nonzero" x="42" y="14" width="19" height="19" rx="2"></rect>
                        </g>
                        <g id="Path-27" transform="translate(123.000000, 75.000000)">
                            <g id="Oval">
                                <mask id="mask-6" fill="white">
                                    <use xlink:href="#path-5"></use>
                                </mask>
                                <use id="Mask" fill="#319CFF" fill-rule="nonzero" xlink:href="#path-5"></use>
                                <polygon id="Path-2" fill="#2B61E8" fill-rule="nonzero" mask="url(#mask-6)" points="171 -5 149 81.5 30.5475751 85.3 30.5475751 96 166 96 176.534806 -3"></polygon>
                            </g>
                        </g>
                    </g>
                    <g id="Cloud" transform="translate(42.000000, 291.000000)" fill="url(#linearGradient-1)" fill-rule="nonzero">
                        <path d="M46.3106791,21.6272401 C50.1105971,9.11011694 61.7414077,0 75.5,0 C90.0747338,0 102.261764,10.2229728 105.281685,23.8895119 C107.591626,23.3085526 110.00978,23 112.5,23 C128.7924,23 142,36.2075999 142,52.5 C142,68.6254057 129.061764,81.7289245 113,81.9958482 L113,82 L21,82 C9.40202025,82 0,72.5979797 0,61 C0,50.0735656 8.34475162,41.0961524 19.0088495,40.0931657 C19.0029638,39.8961639 19,39.6984281 19,39.5 C19,28.7304474 27.7304474,20 38.5,20 C41.2774421,20 43.9192608,20.5806724 46.3106791,21.6272401 Z" id="Combined-Shape"></path>
                    </g>
                    <g id="Photo" transform="translate(392.111783, 137.598026) rotate(20.000000) translate(-392.111783, -137.598026) translate(326.611783, 90.598026)">
                        <g id="Group-10" transform="translate(10.676915, 0.621778)" fill-rule="nonzero">
                            <rect id="Rectangle" fill="#E5F1FF" opacity="0.8" x="7" y="5" width="112.336066" height="87.2473118" rx="5"></rect>
                            <rect id="Rectangle" fill="#FFFFFF" x="0.711302281" y="0.780195481" width="107" height="80"></rect>
                            <rect id="Rectangle" fill="#EBF9FF" x="8.71130228" y="8.78019548" width="91" height="64"></rect>
                            <path d="M99.7113023,72.7801955 L8.71130228,72.7801955 L8.71130228,41.0407638 C17.6187481,36.7748057 26.650235,38.5466204 35.8057628,46.3562117 C43.6117268,52.8273914 53.1905753,54.9844513 64.5423084,52.8273914 C78.8110931,49.9417145 90.5340911,49.5230439 99.7113023,51.5713796 L99.7113023,72.7801955 Z" id="Combined-Shape" fill="#00B2CE"></path>
                        </g>
                        <g id="Group-9" transform="translate(0.851597, 6.685245)">
                            <polygon id="Triangle-Copy" fill="#0079FF" fill-rule="nonzero" points="83.5366198 38.216729 109.432171 66.716729 57.0366198 66.716729"></polygon>
                            <polygon id="Triangle" fill="#025DBF" fill-rule="nonzero" points="49.8137255 27 81.5366198 66.716729 18.5366198 66.716729"></polygon>
                            <g id="Group-7">
                                <g id="Rectangle" transform="translate(72.254902, 3.238095)"></g>
                                <g id="Group-2" transform="translate(81.960784, 10.793651)">
                                    <mask id="mask-8" fill="white">
                                        <use xlink:href="#path-7"></use>
                                    </mask>
                                    <use id="Mask" fill="#FFC100" fill-rule="nonzero" xlink:href="#path-7"></use>
                                    <polygon id="Rectangle" fill="#FFB100" fill-rule="nonzero" mask="url(#mask-8)" transform="translate(6.801880, 14.764368) rotate(-45.000000) translate(-6.801880, -14.764368) " points="0.879610628 -12.2055195 12.7474911 -12.2106549 12.7241484 41.7342564 0.856267957 41.7393918"></polygon>
                                </g>
                                <path d="M72.7198181,27 C69.0775515,34.1957672 71.1329302,39.2328042 78.8859542,42.1111111 C83.2644935,43.9100529 82.218469,46.4285714 75.7478808,49.6666667 L45.5425952,66.716729 L41,66.716729 L72.7198181,27 Z" id="Path-23" fill="#00A8FB" fill-rule="nonzero" transform="translate(61.268310, 46.858364) scale(-1, 1) translate(-61.268310, -46.858364) "></path>
                                <path d="" id="Path-24" stroke="#979797" fill-rule="nonzero"></path>
                                <path d="" id="Path-25" stroke="#979797" fill-rule="nonzero"></path>
                                <path d="M47.2437576,49.929079 C57.9215395,56.0838086 55.1721951,61.6796919 38.9957245,66.716729 L76.9845401,66.716729 L47.2437576,49.929079 Z" id="Path-26" fill="#21367D" fill-rule="nonzero"></path>
                            </g>
                        </g>
                    </g>
                    <g id="File" transform="translate(67.547575, 96.000000)" fill-rule="nonzero">
                        <g id="文件">
                            <path d="M88.75,31.8148148 L88.75,124.975309 C88.75,127.075354 87.0224031,128.777778 84.8913043,128.777778 L3.85869565,128.777778 C1.72759689,128.777778 0,127.075354 0,124.975309 L0,12.8024691 C0,10.7024234 1.72759689,9 3.85869565,9 L66.5625,9" id="Rectangle" fill="#E5F1FF" opacity="0.8"></path>
                            <path d="M98.2710107,23.1066879 L98.2710107,116.267182 C98.2710107,118.367227 96.5434138,120.069651 94.4123151,120.069651 L13.3797064,120.069651 C11.2486076,120.069651 9.52101071,118.367227 9.52101071,116.267182 L9.52101071,4.09434217 C9.52101071,1.99429646 11.2486076,0.291873037 13.3797064,0.291873037 L76.0835107,0.291873037" id="Rectangle" fill="url(#linearGradient-2)"></path>
                            <rect id="Rectangle" fill="#A3D3FF" transform="translate(31.500000, 23.222222) scale(1, -1) translate(-31.500000, -23.222222) " x="17.75" y="20.7777778" width="27.5" height="4.88888889" rx="2"></rect>
                            <rect id="Rectangle-Copy-34" fill="#CEE8FF" x="17.75" y="36.6666667" width="67.5" height="4.88888889" rx="2"></rect>
                            <rect id="Rectangle-Copy-35" fill="#CEE8FF" x="17.75" y="52.5555556" width="67.5" height="4.88888889" rx="2"></rect>
                            <rect id="Rectangle" fill="#A3D3FF" transform="translate(32.750000, 73.333333) scale(1, -1) translate(-32.750000, -73.333333) " x="19" y="70.8888889" width="27.5" height="4.88888889" rx="2"></rect>
                            <rect id="Rectangle-Copy-34" fill="#CEE8FF" x="19" y="86.7777778" width="67.5" height="4.88888889" rx="2"></rect>
                            <rect id="Rectangle-Copy-35" fill="#CEE8FF" x="19" y="102.666667" width="67.5" height="4.88888889" rx="2"></rect>
                            <path d="M74.5210107,0.805530073 L74.5210107,22.291873 L96.4873532,22.291873 C96.7634956,22.291873 96.9873532,22.0680154 96.9873532,21.791873 C96.9873532,21.6573048 96.9331106,21.5284172 96.8368868,21.434345 L75.3705442,0.448002014 C75.1730869,0.254959977 74.8565247,0.25853925 74.6634827,0.455996544 C74.5721493,0.549418922 74.5210107,0.674879658 74.5210107,0.805530073 Z" id="Path-6" fill="#0079FF"></path>
                        </g>
                    </g>
                    <g id="Music" transform="translate(215.000000, 109.000000)">
                        <rect id="Rectangle" fill="#E5F1FF" fill-rule="nonzero" opacity="0.8" x="8" y="9" width="53" height="54" rx="4"></rect>
                        <rect id="Rectangle" fill="url(#linearGradient-2)" fill-rule="nonzero" x="0" y="0" width="53" height="55" rx="4"></rect>
                        <g id="music-(1)" transform="translate(16.000000, 12.000000)" fill="#0079FF">
                            <path d="M20.2180738,20.3509699 C21.2051556,18.6868228 21.8599525,16.5820213 21.9870026,14.4993756 C22.0676306,13.162642 21.7719947,11.759441 21.1318575,10.4399397 C20.1276728,8.36714101 18.4027229,7.20273035 16.7364116,6.07770779 C15.4927863,5.23824895 14.3175725,4.44556347 13.4868601,3.31315564 L13.3378206,3.11129164 C12.8467229,2.44661748 12.2921002,1.6933201 12.2041425,1.06064877 C12.1161847,0.420592171 11.5395725,-0.0348327159 10.9092084,0.00209362627 C10.2690712,0.0464052369 9.77308705,0.58060632 9.77308705,1.22804819 L9.77308705,23.1622954 C8.74935619,22.5370094 7.48862796,22.1529754 6.10817941,22.1529754 C2.74135092,22.1529754 0,24.3611707 0,27.0764877 C0,29.7918047 2.74135092,32 6.10817941,32 C9.4750079,32 12.2163588,29.7918047 12.2163588,27.0764877 L12.2163588,12.7293729 C14.0512559,13.4358969 17.0540369,15.2354407 17.8798628,19.4376584 C17.7259366,19.6666017 17.5793403,19.9127773 17.4083113,20.1097178 C16.9611926,20.6193013 17.010058,21.3972163 17.5182585,21.8452559 C18.0215725,22.298219 18.7936464,22.2440604 19.2407651,21.7344769 C19.5681636,21.3602899 19.8589129,20.9220973 20.1374459,20.4642107 C20.1667651,20.4297461 20.1937175,20.3928198 20.2180738,20.3509699 Z" id="Path"></path>
                        </g>
                    </g>
                    <g id="Man" transform="translate(424.000000, 133.000000)">
                        <ellipse id="Shadow" fill="#D7E8F8" cx="63" cy="229.5" rx="51" ry="7.5"></ellipse>
                        <g id="Head" transform="translate(40.000000, 0.000000)" fill-rule="nonzero">
                            <path d="M8.55769231,11 C5.55769231,24 6.89102564,30.6666667 12.5576923,31 C14.224359,31 15.5576923,30.6666667 16.5576923,30 L16.5576923,36 L28.5576923,36 L21.5576923,9 L8.55769231,11 Z" id="Path-21" fill="#FFDCC9"></path>
                            <path d="M7.9382782,13.9294281 C13.1347785,13.7451167 16.7330286,13.3196276 18.7330286,12.6529609 L21.9964321,16.8071865 L22.9603487,15.4103408 L20.5,9 L8.5,11 L7.9382782,13.9294281 Z" id="Path-3" fill="#E5AD8F"></path>
                            <path d="M19.5,11.3809524 C7.01439285,13.7936508 0.514392847,12.2936508 0,6.88095238 C0.333333333,1.21428571 3.58333333,-0.952380952 9.75,0.380952381 L19.5,2.88095238 C25.8333333,1.21428571 29.1666667,2.54761905 29.5,6.88095238 C29.8333333,9.21428571 28.3333333,14.7142857 25,23.3809524 L19.5,11.3809524 Z" id="Path-20" fill="#3C485A"></path>
                            <path d="M21,17.4824561 C23,16.0380117 24.5,15.6491228 25.5,16.3157895 C26.5,17.3157895 25.5,18.8157895 22.5,20.8157895 L21,17.4824561 Z" id="Path-29" fill="#FFDCC9"></path>
                            <path d="M16.5,30 C18.1666667,29.6666667 19.6666667,29 21,28 C20,30.3333333 18.5,32 16.5,33 L16.5,30 Z" id="Path-31" fill="#E5AD8F"></path>
                        </g>
                        <path d="M93.0253809,197 L88,201.634136 L95.8593961,207.957707 L95.8593961,214 L100.782467,207.518892 C101.377956,206.734944 101.314383,205.634228 100.632601,204.92405 L93.0253809,197 Z" id="Path-9" fill="#07375B" fill-rule="nonzero"></path>
                        <path d="M33.2105252,214 L33.8861044,223 L27,229 L38.195258,229 C39.2998275,229 40.195258,228.104569 40.195258,227 L40.195258,214 L33.2105252,214 Z" id="Path-4" fill="#07375B" fill-rule="nonzero"></path>
                        <g id="Group-5" transform="translate(27.000000, 102.000000)">
                            <g id="Path-5" transform="translate(12.000000, 0.000000)">
                                <mask id="mask-11" fill="white">
                                    <use xlink:href="#path-10"></use>
                                </mask>
                                <use id="Mask" fill="url(#linearGradient-9)" fill-rule="nonzero" xlink:href="#path-10"></use>
                            </g>
                            <g id="Path-10" transform="translate(0.000000, 1.000000)">
                                <mask id="mask-13" fill="white">
                                    <use xlink:href="#path-12"></use>
                                </mask>
                                <use id="Mask" fill="#F7A04A" fill-rule="nonzero" xlink:href="#path-12"></use>
                            </g>
                        </g>
                        <path d="M56.0905718,35 C51.0815888,45.1270671 47.7918701,52.5898243 46.2214158,57.3882716 C42.4757494,68.8329748 41.182766,79.7274679 41.182766,88.5453954 C30.3185198,110.628357 36.534706,121.669837 59.8313248,121.669837 C78.6330657,121.283199 88.0339361,111.640858 88.0339361,92.7428151 C86.2428101,72.5786192 80.5445085,54.5181362 70.9390314,38.5613659 L67.511994,32 L56.0905718,35 Z" id="Path-40" fill="#233FE2" fill-rule="nonzero"></path>
                        <path d="M18.8751209,59.2217865 C16.0946624,52.5664543 14.147609,48.8258588 13.0339607,48 C12.1262684,48 12.1262684,49.8702977 13.0339607,53.6108932 C12.6361247,54.8208188 11.423919,55.1233002 9.39734344,54.5183374 C4.65485031,52.4309376 2.28360375,51.3872376 2.28360375,51.3872376 C0.369231826,50.9111325 0.778109893,51.6523511 3.51023795,53.6108932 C0.575129575,53.7082421 -0.519321281,54.1533658 0.226885386,54.9462644 C0.639738156,55.3293114 2.27806386,55.7153847 5.14186249,56.1044844 L7.6708803,56.5181123 C8.1754793,56.6006408 8.62930813,56.8732944 8.93911655,57.2800497 L13.0339607,62.656274 L18.8751209,59.2217865 Z" id="Path-43" fill="#FFDCC9" fill-rule="nonzero"></path>
                        <path d="M44.8495678,59.3516756 C49.8161928,50.5577062 55.1597766,47.9658791 60.8803189,51.5761945 C66.6594087,58.0097472 62.3264953,69.6015743 47.8815787,86.3516756 C33.2270693,98.5585189 22.8323235,97.7166678 16.6973413,83.8261224 C11.7011834,68.7851759 10.6905131,60.2936937 13.6653304,58.3516756 C17.9016016,55.5219632 22.0845594,59.4812018 26.2142039,70.2293913 C29.7906279,76.8145351 33.7906279,76.8145351 38.2142039,70.2293913 L44.8495678,59.3516756 Z" id="Path-41" fill="#233FE2" fill-rule="nonzero"></path>
                        <path d="M39.8378296,91.4069977 C49.3447923,86.5013007 57.2054186,75.542994 63.4197086,58.5320777 C62.4364528,69.5106926 58.8742128,78.6666667 52.7329886,86 C46.3184948,92.1470032 41.5050328,95.2205048 38.2926025,95.2205048 L39.8378296,91.4069977 Z" id="Path-42" fill="#1423A4" fill-rule="nonzero"></path>
                    </g>
                    <g id="Time" transform="translate(159.762721, 0.000000)" fill-rule="nonzero">
                        <circle id="Oval" fill="#E5F1FF" opacity="0.8" cx="45.5" cy="43.5" r="42.5"></circle>
                        <ellipse id="Oval" fill="url(#linearGradient-2)" cx="40" cy="39.5" rx="40" ry="39.5"></ellipse>
                        <circle id="Oval" fill="#EBF9FF" cx="40.5" cy="39.5" r="18.5"></circle>
                        <rect id="Rectangle" fill="#0078D7" x="38.1575312" y="16.5012316" width="5" height="24" rx="2.5"></rect>
                        <path d="M52.3265555,31.3014563 L52.3265555,31.3014563 C53.6910335,31.3058724 54.7958177,32.4113711 54.7993515,33.7758518 L54.8616676,57.8377332 C54.8651748,59.1919823 53.7701822,60.2926613 52.4159331,60.2961685 C52.411171,60.2961809 52.4064088,60.2961793 52.4016467,60.2961639 L52.4016467,60.2961639 C51.0371686,60.2917479 49.9323844,59.1862491 49.9288507,57.8217685 L49.8665346,33.7598871 C49.8630273,32.405638 50.9580199,31.304959 52.312269,31.3014517 C52.3170311,31.3014394 52.3217933,31.3014409 52.3265555,31.3014563 Z" id="Rectangle" fill="#FF72AC" transform="translate(52.364101, 45.798810) rotate(120.000000) translate(-52.364101, -45.798810) "></path>
                        <circle id="Oval" fill="#0078D7" cx="40.7512023" cy="38.612672" r="4"></circle>
                    </g>
                    <g id="Exchange" transform="translate(266.000000, 34.000000)">
                        <g id="Oval">
                            <mask id="mask-15" fill="white">
                                <use xlink:href="#path-14"></use>
                            </mask>
                            <use id="Mask" fill="#0079FF" fill-rule="nonzero" xlink:href="#path-14"></use>
                        </g>
                        <circle id="Oval" fill="#FFFFFF" fill-rule="nonzero" cx="27" cy="19" r="4"></circle>
                        <circle id="Oval" fill="#FFFFFF" fill-rule="nonzero" cx="46" cy="19" r="4"></circle>
                        <circle id="Oval" fill="#FFFFFF" fill-rule="nonzero" cx="66" cy="19" r="4"></circle>
                    </g>
                    <g id="Article" transform="translate(37.000000, 16.000000)" fill-rule="nonzero">
                        <path d="M11.3130604,0 L78.305392,1.77635684e-15 C83.9938918,-9.37340927e-15 88.647872,4.52989642 88.8015592,10.2163198 L89.2339916,26.2163198 C89.3906638,32.0131929 84.8183777,36.8394949 79.0215046,36.9961672 C78.9269661,36.9987223 78.8323974,37 78.7378244,37 L11.7454928,37 C6.05699298,37 1.40301278,32.4701036 1.24932566,26.7836802 L0.816893229,10.7836802 C0.660220984,4.98680713 5.23250715,0.160505061 11.0293802,0.00383281634 C11.1239187,0.00127772205 11.2184874,1.79372962e-15 11.3130604,1.77635684e-15 Z" id="Rectangle" fill="#DDEDFE"></path>
                        <rect id="Rectangle" fill="#CEE6FD" x="16" y="8" width="60" height="2"></rect>
                        <rect id="Rectangle-Copy-2" fill="#CEE6FD" x="16" y="17" width="60" height="2"></rect>
                        <rect id="Rectangle-Copy-4" fill="#CEE6FD" x="16" y="26" width="60" height="2"></rect>
                    </g>
                    <g id="VIdeo" transform="translate(0.000000, 80.000000)">
                        <path d="M11.0803179,-7.10542736e-15 L40.0803179,-7.10542736e-15 C45.8793078,-3.02014685e-15 50.5803179,4.70101013 50.5803179,10.5 L50.5803179,40.5 C50.5803179,46.2989899 45.8793078,51 40.0803179,51 L11.0803179,51 C5.28132805,51 0.580317928,46.2989899 0.580317928,40.5 L0.580317928,10.5 C0.580317928,4.70101013 5.28132805,-6.0401702e-15 11.0803179,-7.10542736e-15 Z" id="Rectangle" fill="#FFFFFF" fill-rule="nonzero" opacity="0.672526042"></path>
                        <g id="Oval" transform="translate(19.000000, 15.000000)">
                            <mask id="mask-17" fill="white">
                                <use xlink:href="#path-16"></use>
                            </mask>
                            <use id="Mask" fill="#FFB100" fill-rule="nonzero" transform="translate(9.500000, 11.000000) rotate(90.000000) translate(-9.500000, -11.000000) " xlink:href="#path-16"></use>
                            <rect id="Rectangle" fill="#FFC100" fill-rule="nonzero" mask="url(#mask-17)" transform="translate(13.738330, 9.738330) rotate(-60.000000) translate(-13.738330, -9.738330) " x="7.7383297" y="-10.7616703" width="12" height="41"></rect>
                        </g>
                    </g>
                </g>
            </g>
        </g>
    </g>
</svg>